<svg xmlns="http://www.w3.org/2000/svg" width="1200" height="940" viewBox="0 0 1200 940" font-family="-apple-system,'Segoe UI',Roboto,Helvetica,Arial,sans-serif">
  <defs>
    <linearGradient id="hg" x1="0" y1="0" x2="1" y2="0">
      <stop offset="0%" stop-color="#4f46e5"/>
      <stop offset="100%" stop-color="#7c3aed"/>
    </linearGradient>
  </defs>

  <!-- Full canvas background -->
  <rect width="1200" height="940" fill="#f6f8fb"/>

  <!-- Header band h=88 -->
  <rect width="1200" height="88" fill="url(#hg)"/>
  <text x="40" y="52" fill="white" font-size="32" font-weight="700">Capability matrix — and the pattern in each row</text>
  <text x="40" y="76" fill="#e0e7ff" font-size="17">engineering-board vs agentic-engineering-max vs agentic-engineering</text>

  <!-- Legend bar -->
  <rect x="0" y="88" width="1200" height="32" fill="#e8edf5"/>
  <text x="40" y="109" fill="#334155" font-size="15" font-weight="600">&#9679;</text>
  <text x="60" y="109" fill="#475569" font-size="13">shipped / strong</text>
  <text x="192" y="109" fill="#f59e0b" font-size="15" font-weight="600">&#9680;</text>
  <text x="212" y="109" fill="#475569" font-size="13">partial</text>
  <text x="272" y="109" fill="#94a3b8" font-size="15" font-weight="600">&#9675;</text>
  <text x="292" y="109" fill="#475569" font-size="13">absent / planned</text>

  <!-- ════════════════════════════════════════════════════ -->
  <!-- TABLE: y starts at 120                              -->
  <!-- Cols:  Dim x=24 w=252 | EB x=276 w=210 |           -->
  <!--        AEM x=486 w=210 | AE x=696 w=212 |          -->
  <!--        Pattern x=908 w=268 (to 1176)               -->
  <!-- Header h=42 → y=162                                 -->
  <!-- Rows 1-9: h=65 each                                 -->
  <!-- Row 10: h=70                                        -->
  <!-- Total: 120+42+9×65+70 = 120+42+585+70 = 817         -->
  <!-- ════════════════════════════════════════════════════ -->

  <!-- Column headers -->
  <rect x="24"  y="120" width="252" height="42" fill="#f1f5f9"/>
  <rect x="276" y="120" width="210" height="42" fill="#2563eb"/>
  <rect x="486" y="120" width="210" height="42" fill="#d97706"/>
  <rect x="696" y="120" width="212" height="42" fill="#7c3aed"/>
  <rect x="908" y="120" width="268" height="42" fill="#f1f5f9"/>

  <text x="150"  y="146" text-anchor="middle" fill="#0f172a" font-size="13" font-weight="700">Dimension</text>
  <text x="381"  y="146" text-anchor="middle" fill="white"   font-size="13" font-weight="700">engineering-board (EB)</text>
  <text x="591"  y="143" text-anchor="middle" fill="white"   font-size="12" font-weight="700">agentic-engineering-max</text>
  <text x="591"  y="158" text-anchor="middle" fill="#fef3c7" font-size="11">(AEM)</text>
  <text x="802"  y="146" text-anchor="middle" fill="white"   font-size="13" font-weight="700">agentic-engineering (AE)</text>
  <text x="1042" y="146" text-anchor="middle" fill="#0f172a" font-size="13" font-weight="700">Shared pattern</text>

  <!-- ── Macro helper: row cy = top + 24 (glyph), top + 42 (label) ── -->

  <!-- ROW 1  y=162  h=65  white  Autonomous orchestration -->
  <rect x="24"  y="162" width="252" height="65" fill="#ffffff"/>
  <rect x="276" y="162" width="210" height="65" fill="#ffffff"/>
  <rect x="486" y="162" width="210" height="65" fill="#ffffff"/>
  <rect x="696" y="162" width="212" height="65" fill="#ffffff"/>
  <rect x="908" y="162" width="268" height="65" fill="#ffffff"/>
  <!-- dim label vertically centered at row mid y=194 -->
  <text x="34" y="188" fill="#0f172a" font-size="13" font-weight="600">Autonomous</text>
  <text x="34" y="205" fill="#0f172a" font-size="13" font-weight="600">orchestration</text>
  <!-- EB -->
  <text x="381" y="187" text-anchor="middle" fill="#94a3b8" font-size="22">&#9675;</text>
  <text x="381" y="210" text-anchor="middle" fill="#1e3a8a" font-size="12">RFC only (1.2.0)</text>
  <!-- AEM -->
  <text x="591" y="187" text-anchor="middle" fill="#334155" font-size="22">&#9679;</text>
  <text x="591" y="210" text-anchor="middle" fill="#92400e" font-size="12">orchestrator-loop</text>
  <!-- AE -->
  <text x="802" y="187" text-anchor="middle" fill="#334155" font-size="22">&#9679;</text>
  <text x="802" y="210" text-anchor="middle" fill="#5b21b6" font-size="12">orchestrate.py</text>
  <!-- Pattern -->
  <text x="918" y="188" fill="#334155" font-size="12">All converge on an</text>
  <text x="918" y="205" fill="#334155" font-size="12">autonomous loop</text>

  <!-- ROW 2  y=227  h=65  stripe  Parallel workers -->
  <rect x="24"  y="227" width="252" height="65" fill="#f1f5f9"/>
  <rect x="276" y="227" width="210" height="65" fill="#f1f5f9"/>
  <rect x="486" y="227" width="210" height="65" fill="#f1f5f9"/>
  <rect x="696" y="227" width="212" height="65" fill="#f1f5f9"/>
  <rect x="908" y="227" width="268" height="65" fill="#f1f5f9"/>
  <text x="34" y="252" fill="#0f172a" font-size="13" font-weight="600">Parallel workers</text>
  <text x="34" y="269" fill="#0f172a" font-size="13" font-weight="600">in worktrees</text>
  <text x="381" y="252" text-anchor="middle" fill="#94a3b8" font-size="22">&#9675;</text>
  <text x="381" y="275" text-anchor="middle" fill="#1e3a8a" font-size="12">planned</text>
  <text x="591" y="252" text-anchor="middle" fill="#334155" font-size="22">&#9679;</text>
  <text x="591" y="275" text-anchor="middle" fill="#92400e" font-size="12">fleet 4w / 2r</text>
  <text x="802" y="252" text-anchor="middle" fill="#334155" font-size="22">&#9679;</text>
  <text x="802" y="275" text-anchor="middle" fill="#5b21b6" font-size="12">DAG worktrees</text>
  <text x="918" y="252" fill="#334155" font-size="12">Siblings already</text>
  <text x="918" y="269" fill="#334155" font-size="12">ship it</text>

  <!-- ROW 3  y=292  h=65  white  Worker observability -->
  <rect x="24"  y="292" width="252" height="65" fill="#ffffff"/>
  <rect x="276" y="292" width="210" height="65" fill="#ffffff"/>
  <rect x="486" y="292" width="210" height="65" fill="#ffffff"/>
  <rect x="696" y="292" width="212" height="65" fill="#ffffff"/>
  <rect x="908" y="292" width="268" height="65" fill="#ffffff"/>
  <text x="34" y="317" fill="#0f172a" font-size="13" font-weight="600">Worker observability</text>
  <text x="34" y="334" fill="#0f172a" font-size="13" font-weight="600">(design choice)</text>
  <text x="381" y="317" text-anchor="middle" fill="#f59e0b" font-size="22">&#9680;</text>
  <text x="381" y="340" text-anchor="middle" fill="#1e3a8a" font-size="12">observable (planned)</text>
  <text x="591" y="317" text-anchor="middle" fill="#f59e0b" font-size="22">&#9680;</text>
  <text x="591" y="340" text-anchor="middle" fill="#92400e" font-size="12">headless + HUD</text>
  <text x="802" y="317" text-anchor="middle" fill="#94a3b8" font-size="22">&#9675;</text>
  <text x="802" y="340" text-anchor="middle" fill="#5b21b6" font-size="12">headless only</text>
  <text x="918" y="317" fill="#334155" font-size="12">EB is the</text>
  <text x="918" y="334" fill="#334155" font-size="12">contrarian</text>

  <!-- ROW 4  y=357  h=65  stripe  Review sophistication -->
  <rect x="24"  y="357" width="252" height="65" fill="#f1f5f9"/>
  <rect x="276" y="357" width="210" height="65" fill="#f1f5f9"/>
  <rect x="486" y="357" width="210" height="65" fill="#f1f5f9"/>
  <rect x="696" y="357" width="212" height="65" fill="#f1f5f9"/>
  <rect x="908" y="357" width="268" height="65" fill="#f1f5f9"/>
  <text x="34" y="382" fill="#0f172a" font-size="13" font-weight="600">Review</text>
  <text x="34" y="399" fill="#0f172a" font-size="13" font-weight="600">sophistication</text>
  <text x="381" y="382" text-anchor="middle" fill="#f59e0b" font-size="22">&#9680;</text>
  <text x="381" y="400" text-anchor="middle" fill="#1e3a8a" font-size="12">reviewer + validator</text>
  <text x="591" y="382" text-anchor="middle" fill="#334155" font-size="22">&#9679;</text>
  <text x="591" y="400" text-anchor="middle" fill="#92400e" font-size="12">epistemic 4-lens</text>
  <text x="802" y="382" text-anchor="middle" fill="#334155" font-size="22">&#9679;</text>
  <text x="802" y="400" text-anchor="middle" fill="#5b21b6" font-size="12">isolated + contrarian</text>
  <text x="918" y="382" fill="#334155" font-size="12">All invest heavily</text>
  <text x="918" y="399" fill="#334155" font-size="12">in review</text>

  <!-- ROW 5  y=422  h=65  white  Falsifiability -->
  <rect x="24"  y="422" width="252" height="65" fill="#ffffff"/>
  <rect x="276" y="422" width="210" height="65" fill="#ffffff"/>
  <rect x="486" y="422" width="210" height="65" fill="#ffffff"/>
  <rect x="696" y="422" width="212" height="65" fill="#ffffff"/>
  <rect x="908" y="422" width="268" height="65" fill="#ffffff"/>
  <text x="34" y="447" fill="#0f172a" font-size="13" font-weight="600">Falsifiability —</text>
  <text x="34" y="464" fill="#0f172a" font-size="13" font-weight="600">enforced at</text>
  <text x="381" y="447" text-anchor="middle" fill="#334155" font-size="22">&#9679;</text>
  <text x="381" y="464" text-anchor="middle" fill="#1e3a8a" font-size="12">capture (transcript)</text>
  <text x="591" y="447" text-anchor="middle" fill="#334155" font-size="22">&#9679;</text>
  <text x="591" y="464" text-anchor="middle" fill="#92400e" font-size="12">plan + review</text>
  <text x="802" y="447" text-anchor="middle" fill="#334155" font-size="22">&#9679;</text>
  <text x="802" y="464" text-anchor="middle" fill="#5b21b6" font-size="12">spec dispatch (gate)</text>
  <text x="918" y="447" fill="#334155" font-size="12">Same obsession,</text>
  <text x="918" y="464" fill="#334155" font-size="12">3 enforcement points</text>

  <!-- ROW 6  y=487  h=65  stripe  Self-improvement -->
  <rect x="24"  y="487" width="252" height="65" fill="#f1f5f9"/>
  <rect x="276" y="487" width="210" height="65" fill="#f1f5f9"/>
  <rect x="486" y="487" width="210" height="65" fill="#f1f5f9"/>
  <rect x="696" y="487" width="212" height="65" fill="#f1f5f9"/>
  <rect x="908" y="487" width="268" height="65" fill="#f1f5f9"/>
  <text x="34" y="512" fill="#0f172a" font-size="13" font-weight="600">Self-improvement</text>
  <text x="34" y="529" fill="#0f172a" font-size="13" font-weight="600">loop</text>
  <text x="381" y="512" text-anchor="middle" fill="#94a3b8" font-size="22">&#9675;</text>
  <text x="381" y="529" text-anchor="middle" fill="#1e3a8a" font-size="12">learnings-curator</text>
  <text x="591" y="512" text-anchor="middle" fill="#94a3b8" font-size="22">&#9675;</text>
  <text x="591" y="529" text-anchor="middle" fill="#92400e" font-size="12">—</text>
  <text x="802" y="512" text-anchor="middle" fill="#f59e0b" font-size="22">&#9680;</text>
  <text x="802" y="529" text-anchor="middle" fill="#5b21b6" font-size="12">retros&#8594;patterns (Ph4)</text>
  <text x="918" y="512" fill="#334155" font-size="12">Aspirational</text>
  <text x="918" y="529" fill="#334155" font-size="12">everywhere</text>

  <!-- ROW 7  y=552  h=65  white  State legibility -->
  <rect x="24"  y="552" width="252" height="65" fill="#ffffff"/>
  <rect x="276" y="552" width="210" height="65" fill="#ffffff"/>
  <rect x="486" y="552" width="210" height="65" fill="#ffffff"/>
  <rect x="696" y="552" width="212" height="65" fill="#ffffff"/>
  <rect x="908" y="552" width="268" height="65" fill="#ffffff"/>
  <text x="34" y="577" fill="#0f172a" font-size="13" font-weight="600">State legibility</text>
  <text x="34" y="594" fill="#0f172a" font-size="13" font-weight="600">(git-diff / edit)</text>
  <text x="381" y="577" text-anchor="middle" fill="#334155" font-size="22">&#9679;</text>
  <text x="381" y="594" text-anchor="middle" fill="#1e3a8a" font-size="12">markdown, git-native</text>
  <text x="591" y="577" text-anchor="middle" fill="#334155" font-size="22">&#9679;</text>
  <text x="591" y="594" text-anchor="middle" fill="#92400e" font-size="12">markdown + HUD</text>
  <text x="802" y="577" text-anchor="middle" fill="#94a3b8" font-size="22">&#9675;</text>
  <text x="802" y="594" text-anchor="middle" fill="#5b21b6" font-size="12">DB, tool-only</text>
  <text x="918" y="577" fill="#334155" font-size="12">DB buys types,</text>
  <text x="918" y="594" fill="#334155" font-size="12">loses legibility</text>

  <!-- ROW 8  y=617  h=65  stripe  Productization -->
  <rect x="24"  y="617" width="252" height="65" fill="#f1f5f9"/>
  <rect x="276" y="617" width="210" height="65" fill="#f1f5f9"/>
  <rect x="486" y="617" width="210" height="65" fill="#f1f5f9"/>
  <rect x="696" y="617" width="212" height="65" fill="#f1f5f9"/>
  <rect x="908" y="617" width="268" height="65" fill="#f1f5f9"/>
  <text x="34" y="642" fill="#0f172a" font-size="13" font-weight="600">Productization</text>
  <text x="34" y="659" fill="#0f172a" font-size="13" font-weight="600">/ UX</text>
  <text x="381" y="642" text-anchor="middle" fill="#f59e0b" font-size="22">&#9680;</text>
  <text x="381" y="659" text-anchor="middle" fill="#1e3a8a" font-size="12">CLI + hooks</text>
  <text x="591" y="642" text-anchor="middle" fill="#334155" font-size="22">&#9679;</text>
  <text x="591" y="659" text-anchor="middle" fill="#92400e" font-size="12">HUD, doctor, 8 rel.</text>
  <text x="802" y="642" text-anchor="middle" fill="#f59e0b" font-size="22">&#9680;</text>
  <text x="802" y="659" text-anchor="middle" fill="#5b21b6" font-size="12">CLI + MCP</text>
  <text x="918" y="642" fill="#334155" font-size="12">AEM most</text>
  <text x="918" y="659" fill="#334155" font-size="12">productized</text>

  <!-- ROW 9  y=682  h=65  white  Cross-platform -->
  <rect x="24"  y="682" width="252" height="65" fill="#ffffff"/>
  <rect x="276" y="682" width="210" height="65" fill="#ffffff"/>
  <rect x="486" y="682" width="210" height="65" fill="#ffffff"/>
  <rect x="696" y="682" width="212" height="65" fill="#ffffff"/>
  <rect x="908" y="682" width="268" height="65" fill="#ffffff"/>
  <text x="34" y="718" fill="#0f172a" font-size="13" font-weight="600">Cross-platform</text>
  <text x="381" y="706" text-anchor="middle" fill="#334155" font-size="22">&#9679;</text>
  <text x="381" y="725" text-anchor="middle" fill="#1e3a8a" font-size="12">bash crosscompat</text>
  <text x="591" y="706" text-anchor="middle" fill="#334155" font-size="22">&#9679;</text>
  <text x="591" y="725" text-anchor="middle" fill="#92400e" font-size="12">pwsh7 Win+Linux</text>
  <text x="802" y="706" text-anchor="middle" fill="#94a3b8" font-size="22">&#9675;</text>
  <text x="802" y="725" text-anchor="middle" fill="#5b21b6" font-size="12">Windows-only</text>
  <text x="918" y="706" fill="#334155" font-size="12">Two of three</text>
  <text x="918" y="723" fill="#334155" font-size="12">portable</text>

  <!-- ROW 10  y=747  h=70  stripe  Maturity posture (no glyphs) -->
  <rect x="24"  y="747" width="252" height="70" fill="#f1f5f9"/>
  <rect x="276" y="747" width="210" height="70" fill="#dbeafe"/>
  <rect x="486" y="747" width="210" height="70" fill="#fef3c7"/>
  <rect x="696" y="747" width="212" height="70" fill="#ede9fe"/>
  <rect x="908" y="747" width="268" height="70" fill="#f1f5f9"/>
  <text x="34" y="772" fill="#0f172a" font-size="13" font-weight="600">Maturity posture</text>
  <text x="34" y="789" fill="#0f172a" font-size="13" font-weight="600">(version)</text>
  <text x="381" y="772" text-anchor="middle" fill="#1e3a8a" font-size="15" font-weight="700">v1.1.0</text>
  <text x="381" y="791" text-anchor="middle" fill="#1e3a8a" font-size="12">conservative</text>
  <text x="591" y="772" text-anchor="middle" fill="#92400e" font-size="15" font-weight="700">v2.4.0</text>
  <text x="591" y="791" text-anchor="middle" fill="#92400e" font-size="12">productized</text>
  <text x="802" y="772" text-anchor="middle" fill="#5b21b6" font-size="15" font-weight="700">v0.1.0</text>
  <text x="802" y="791" text-anchor="middle" fill="#5b21b6" font-size="12">ambitious engine</text>
  <text x="918" y="772" fill="#334155" font-size="12">Version inverts</text>
  <text x="918" y="789" fill="#334155" font-size="12">capability signal</text>

  <!-- ════════════ GRID LINES ════════════ -->
  <!-- Outer border -->
  <rect x="24" y="120" width="1152" height="697" fill="none" stroke="#cbd5e1" stroke-width="1.5"/>

  <!-- Horizontal separators -->
  <line x1="24" y1="162" x2="1176" y2="162" stroke="#e2e8f0" stroke-width="1"/>
  <line x1="24" y1="227" x2="1176" y2="227" stroke="#e2e8f0" stroke-width="1"/>
  <line x1="24" y1="292" x2="1176" y2="292" stroke="#e2e8f0" stroke-width="1"/>
  <line x1="24" y1="357" x2="1176" y2="357" stroke="#e2e8f0" stroke-width="1"/>
  <line x1="24" y1="422" x2="1176" y2="422" stroke="#e2e8f0" stroke-width="1"/>
  <line x1="24" y1="487" x2="1176" y2="487" stroke="#e2e8f0" stroke-width="1"/>
  <line x1="24" y1="552" x2="1176" y2="552" stroke="#e2e8f0" stroke-width="1"/>
  <line x1="24" y1="617" x2="1176" y2="617" stroke="#e2e8f0" stroke-width="1"/>
  <line x1="24" y1="682" x2="1176" y2="682" stroke="#e2e8f0" stroke-width="1"/>
  <line x1="24" y1="747" x2="1176" y2="747" stroke="#e2e8f0" stroke-width="1"/>

  <!-- Vertical separators -->
  <line x1="276" y1="120" x2="276" y2="817" stroke="#e2e8f0" stroke-width="1"/>
  <line x1="486" y1="120" x2="486" y2="817" stroke="#e2e8f0" stroke-width="1"/>
  <line x1="696" y1="120" x2="696" y2="817" stroke="#e2e8f0" stroke-width="1"/>
  <line x1="908" y1="120" x2="908" y2="817" stroke="#e2e8f0" stroke-width="1"/>

  <!-- Footer -->
  <text x="600" y="858" text-anchor="middle" fill="#94a3b8" font-size="12">engineering-board · capability &amp; pattern comparison · 2026-06-08</text>

</svg>
